{"title":"Super K[2011]Eng[DvDRip].Xvid-{RedDragon}","uid":6927949,"size":737313442,"categoryP":"video","categoryS":"movies","magnet":"?xt=urn:btih:ce4e80d1da26af9df7a1d08079e3744eac88df81&amp;dn=Super+K%5B2011%5DEng%5BDvDRip%5D.Xvid-%7BRedDragon%7D&amp;tr=udp%3A%2F%2Ftracker.openbittorrent.com%3A80&amp;tr=udp%3A%2F%2Fopen.demonii.com%3A1337&amp;tr=udp%3A%2F%2Ftracker.coppersurfer.tk%3A6969&amp;tr=udp%3A%2F%2Fexodus.desync.com%3A6969","seeders":0,"leechers":1,"uploader":"RedDr4gon","files":7,"time":1325579504,"description":"General\n\nComplete name                    : Super K[2011]Eng[DvDRip].Xvid-{RedDragon} .avi\nFormat                           : AVI\nFormat/Info                      : Audio Video Interleave\nFile size                        : 700 MiB\nDuration                         : 1h 31mn\nOverall bit rate                 : 1 008 Kbps\nIMDb Rating                      : http://www.imdb.com/title/tt2070831/\n\nVideo\n\nID                               : 0\nFormat                           : MPEG-4 Visual\nFormat profile                   : Advanced Simple@L5\nFormat settings, BVOP            : Yes\nFormat settings, QPel            : No\nFormat settings, GMC             : No warppoints\nFormat settings, Matrix          : Default (H.263)\nCodec ID                         : XVID\nCodec ID/Hint                    : XviD\nDuration                         : 1h 31mn\nBit rate                         : 870 Kbps\nWidth                            : 702 pixels\nHeight                           : 288 pixels\nDisplay aspect ratio             : 2.40:1\nFrame rate                       : 23.976 fps\nColor space                      : YUV\nChroma subsampling               : 4:2:0\nBit depth                        : 8 bits\nScan type                        : Progressive\nBits/(Pixel*Frame)               : 0.180\nStream size                      : 570 MiB (86%)\nWriting library                  : XviD 63\n\nAudio\n\nID                               : 1\nFormat                           : MPEG Audio\nFormat version                   : Version 1\nFormat profile                   : Layer 3\nCodec ID                         : 55\nCodec ID/Hint                    : MP3\nDuration                         : 1h 31mn\nBit rate mode                    : Constant\nBit rate                         : 128 Kbps\nChannel(s)                       : 2 channels\nSampling rate                    : 48.0 KHz\nStream size                      : 83.8 MiB (13%)\nAlignment                        : Split accross interleaves\nInterleave, duration             : 42 ms (1.00 video frame)\nInterleave, preload duration     : 500 ms\n \n\nFORUMS. \n \n \nPlease Join my Forums :\n &lt;a href=&quot;\nhttp://discussionforums.freeforhosting.com/&quot; rel=&quot;nofollow&quot; target=&quot;_NEW&quot;&gt;\nhttp://discussionforums.freeforhosting.com/&lt;/a&gt;    --&gt; Discussion Forum.","torrent":{"xt":"urn:btih:ce4e80d1da26af9df7a1d08079e3744eac88df81","amp;dn":"Super+K%5B2011%5DEng%5BDvDRip%5D.Xvid-%7BRedDragon%7D","amp;tr":["udp%3A%2F%2Ftracker.openbittorrent.com%3A80","udp%3A%2F%2Fopen.demonii.com%3A1337","udp%3A%2F%2Ftracker.coppersurfer.tk%3A6969","udp%3A%2F%2Fexodus.desync.com%3A6969"],"infoHash":"ce4e80d1da26af9df7a1d08079e3744eac88df81","infoHashBuffer":{"type":"Buffer","data":[206,78,128,209,218,38,175,157,247,161,208,128,121,227,116,78,172,136,223,129]},"announce":[],"urlList":[]}}